<svg
    xmlns:dc="http://purl.org/dc/elements/1.1/"
    xmlns:cc="http://creativecommons.org/ns#"
    xmlns:rdf="http://www.w3.org/1999/02/22-rdf-syntax-ns#"
    xmlns:svg="http://www.w3.org/2000/svg"
    xmlns="http://www.w3.org/2000/svg"
    xmlns:sodipodi="http://sodipodi.sourceforge.net/DTD/sodipodi-0.dtd"
    xmlns:inkscape="http://www.inkscape.org/namespaces/inkscape"
    width="297mm"
    height="210mm"
    viewBox="0 0 297 210"
    id="svg8"
    inkscape:export-filename="/var/www/html/ieademe/images/ieademe-logo.png"
    inkscape:export-xdpi="116.8229"
    inkscape:export-ydpi="116.8229"
    inkscape:version="1.0.2 (e86c870879, 2021-01-15)"
    sodipodi:docname="normal-logo_white.svg"
    version="1.1">
    <metadata
        id="metadata31">
        <rdf:RDF>
            <cc:Work
                rdf:about="">
                <dc:format>image/svg+xml</dc:format>
                <dc:type
                    rdf:resource="http://purl.org/dc/dcmitype/StillImage" />
                <dc:title />
            </cc:Work>
        </rdf:RDF>
    </metadata>
    <defs
        id="defs2" />
    <sodipodi:namedview
        id="base"
        pagecolor="#ffffff"
        bordercolor="#666666"
        borderopacity="1"
        inkscape:pageopacity="0"
        inkscape:pageshadow="2"
        inkscape:zoom="0.49497475"
        inkscape:cx="776.46173"
        inkscape:cy="376.251"
        inkscape:document-units="mm"
        inkscape:current-layer="g1133"
        showgrid="false"
        inkscape:pagecheckerboard="true"
        inkscape:window-width="1366"
        inkscape:window-height="715"
        inkscape:window-x="0"
        inkscape:window-y="27"
        inkscape:window-maximized="1"
        inkscape:document-rotation="0" />
    <g
        inkscape:label="Camada 1"
        inkscape:groupmode="layer"
        id="layer1"
        transform="translate(0,-87)">
        <g
            id="g1133"
            transform="translate(-5.3453903,-8.018086)">
            <g
                id="text1056"
                style="font-style:normal;font-weight:400;font-size:25.37696266px;line-height:1.25;font-family:sans-serif;letter-spacing:0;word-spacing:0;fill:#ffffff;fill-opacity:1;stroke:none;stroke-width:0.39651504"
                transform="matrix(1.8136355,0,0,2.2015292,-121.37124,-174.8332)"
                aria-label="IEADEME">
                <path
                    inkscape:connector-curvature="0"
                    id="path1058"
                    style="font-style:normal;font-variant:normal;font-weight:700;font-stretch:normal;font-family:arial black;-inkscape-font-specification:'Arial Black, Bold';fill:#ffffff;stroke-width:0.39651504"
                    d="m89.190881 195.24029h5.625557v18.16535h-5.625557z" />
                <path
                    inkscape:connector-curvature="0"
                    id="path1060"
                    style="font-style:normal;font-variant:normal;font-weight:700;font-stretch:normal;font-family:arial black;-inkscape-font-specification:'Arial Black, Bold';fill:#ffffff;stroke-width:0.39651504"
                    d="m98.818762 195.24029h15.042788v3.87842h-9.41723v2.88712h8.73572v3.70494h-8.73572v3.58103h9.68984v4.11384H98.818762z" />
                <path
                    inkscape:connector-curvature="0"
                    id="path1062"
                    style="font-style:normal;font-variant:normal;font-weight:700;font-stretch:normal;font-family:arial black;-inkscape-font-specification:'Arial Black, Bold';fill:#ffffff;stroke-width:0.39651504"
                    d="m128.34674 210.40699h-6.3938l-.87977 2.99865h-5.73708l6.8275-18.16535h6.1212l6.82749 18.16535h-5.87338zm-1.17715-3.92797-2.00736-6.53011-1.99497 6.53011z" />
                <path
                    inkscape:connector-curvature="0"
                    id="path1064"
                    style="font-style:normal;font-variant:normal;font-weight:700;font-stretch:normal;font-family:arial black;-inkscape-font-specification:'Arial Black, Bold';fill:#ffffff;stroke-width:0.39651504"
                    d="m136.97094 195.24029h8.33921q2.46583.0 3.97754.66912 1.52411.66912 2.51539 1.92062.99129 1.2515 1.43737 2.91191.44608 1.66041.44608 3.51907.0 2.91191-.66912 4.52275-.65673 1.59845-1.83388 2.68887-1.17715 1.07802-2.52778 1.43737-1.84628.49564-3.3456.49564h-8.33921zm5.61317 4.11385v9.92526h1.37541q1.75954.0 2.503-.38412.74347-.39651 1.16477-1.36302.42129-.9789.42129-3.15973.0-2.88712-.94172-3.95276-.94172-1.06563-3.12256-1.06563z" />
                <path
                    inkscape:connector-curvature="0"
                    id="path1066"
                    style="font-style:normal;font-variant:normal;font-weight:700;font-stretch:normal;font-family:arial black;-inkscape-font-specification:'Arial Black, Bold';fill:#ffffff;stroke-width:0.39651504"
                    d="m156.61083 195.24029h15.04279v3.87842h-9.41723v2.88712h8.73572v3.70494h-8.73572v3.58103h9.68983v4.11384h-15.31539z" />
                <path
                    sodipodi:nodetypes="cccccccccccccc"
                    inkscape:connector-curvature="0"
                    id="path1068"
                    style="font-style:normal;font-variant:normal;font-weight:700;font-stretch:normal;font-family:arial black;-inkscape-font-specification:'Arial Black, Bold';fill:#ffffff;stroke-width:0.38162237"
                    d="m177.41528 195.30089 5.27234-.0607 3.16042 10.10949 2.10785-10.10949h5.31758l4.7943 18.16545h-5.21566l-2.11699-10.50843-3.60644 10.51274h-3.46451l-3.03849-11.07022-2.38611 11.05183-5.14733.0141z" />
                <path
                    inkscape:connector-curvature="0"
                    id="path1070"
                    style="font-style:normal;font-variant:normal;font-weight:700;font-stretch:normal;font-family:arial black;-inkscape-font-specification:'Arial Black, Bold';fill:#ffffff;stroke-width:0.39651504"
                    d="m198.88925 195.24029h15.04279v3.87842h-9.41723v2.88712h8.73572v3.70494h-8.73572v3.58103h9.68983v4.11384h-15.31539z" />
            </g>
            <g
                transform="matrix(1.9981921,0,0,1.9981921,-121.37124,-168.48894)"
                style="fill:#ffffff;fill-opacity:1"
                id="g227">
                <path
                    style="fill:#ffffff;fill-opacity:1;stroke:none;stroke-width:0.71428573;stroke-miterlimit:4;stroke-dasharray:none;stroke-opacity:1"
                    d="m126.2526 182.98039c-3.93848-4.35942-5.35885-7.48588-5.35885-11.79564.0-4.97602 1.25973-7.16608 8.87488-15.42906 7.18127-7.79217 8.78152-10.5651 8.83032-15.30126l.0339-3.28754 3.2524 3.6278c8.91633 9.94547 9.38712 18.96308 1.37654 26.36649-9.03272 8.34806-11.4124 11.11685-12.33276 14.34931-.51386 1.80477-1.16403 3.55149-1.44483 3.88159-.2808.33009-1.73501-.75517-3.23158-2.41169z"
                    id="path175"
                    inkscape:connector-curvature="0" />
                <path
                    style="fill:#ffffff;fill-opacity:1;stroke:none;stroke-width:0.71428573;stroke-miterlimit:4;stroke-dasharray:none;stroke-opacity:1"
                    d="m137.84605 190.40812c-3.81926-.83998-6.03934-4.57136-5.05449-8.49533.24091-.95984 4.05038-5.29712 8.46549-9.63839 4.41511-4.34127 9.04213-9.59411 10.28227-11.67298l2.2548-3.77976-.29899 4.26005c-.18824 2.68198-1.0855 5.81455-2.42217 8.45643-2.20801 4.36407-2.14898 6.85714.15203 6.42066.97754-.18543 1.39526-1.14212 1.59224-3.64664l.26704-3.39527 1.0444 3.40179c1.56732 5.10502 1.34479 9.19191-.66279 12.17243-3.07611 4.5669-9.93856 7.16649-15.61983 5.91701z"
                    id="path177"
                    inkscape:connector-curvature="0" />
            </g>
            <path
                inkscape:connector-curvature="0"
                id="path179"
                d="m243.83385 243.7095c-7.50175-.73378-13.31343-2.21611-28.66282-7.31086-19.1166-6.34515-23.99686-7.35567-34.12502-7.06599-5.50084.15726-7.05202.33904-10.02253 1.17402-4.45945 1.2535-8.39509 3.07166-12.36058 5.71021-1.7179 1.14304-3.40274 2.07826-3.74409 2.07826-.34134.0-1.58959-.62028-2.77389-1.3784-3.59001-2.29815-9.86764-5.26074-13.82824-6.5259-7.09375-2.26606-13.78653-2.78556-22.00574-1.70813-6.66798.87409-13.10208 2.55177-26.740781 6.97262-11.91508 3.86212-19.167698 5.55595-26.717647 6.23982-2.418511.21905-2.926672.17063-2.926672-.27883.0-.41695 1.243715-.6962 5.32744-1.19617 6.518123-.79803 12.858286-2.36751 23.683053-5.86266 18.354947-5.92654 23.393907-6.99166 33.110377-6.99875 9.45417-.006 12.5399.56348 21.66617 4.00501 3.96301 1.49444 5.15408 1.6005 3.4409.30631-2.84993-2.15289-11.27188-5.39882-17.0664-6.57761-3.81229-.77554-14.0558-.78326-20.32505-.0159-7.32449.89725-10.752832 1.7942-30.199497 7.9012-16.508383 5.18425-25.140813 7.12354-31.910108 7.16863-3.608555.024-3.781578-.0117-3.894196-.80302-.132476-.93152.238244-1.03467 5.21592-1.45079 7.01817-.5867 15.085052-2.51142 28.585996-6.82047 17.681122-5.64325 22.890445-7.04548 30.136175-8.11208 12.98477-1.91139 25.10572-.20124 36.36018 5.13003 1.96976.9331 3.92483 1.69653 4.34461 1.69653.73923.0.74175-.0238.08-.75502-1.01664-1.12336-9.05915-5.11031-12.91339-6.40159-7.70348-2.58089-20.3479-3.66412-29.1931-2.50088-8.283863 1.08938-16.709119 3.2522-32.358479 8.3066-13.945982 4.50424-20.99892 6.38138-29.077871 7.73911-5.740646.96476-11.638929 1.39303-11.963056.86858-.450673-.72923-.375481-3.54054.1025-3.83603.257586-.15926 2.282774-.3902 4.500407-.51338 8.791347-.48824 17.388387-2.57885 37.263904-9.06168 18.812439-6.13611 26.643555-7.7993 38.107685-8.09348 8.46909-.2173 12.04863.13247 18.64993 1.82257 6.73959 1.72548 15.46432 5.61934 21.03509 9.38801 1.64523 1.113 2.32849.97238 5.45858-1.12341 10.76646-7.20885 23.41707-10.34224 36.64766-9.07714 9.96329.95268 17.23652 2.77727 37.04072 9.29218 20.5474 6.75937 28.56622 8.71483 37.3533 9.10887 5.10621.22897 5.66451.46448 5.66451 2.38938.0.5437-.22306 1.29359-.49567 1.66644-.47324.64717-.75118.65027-6.13657.0686-12.34033-1.3331-18.27235-2.76468-37.17336-8.97105-17.34058-5.69395-16.18245-5.34012-22.617-6.91028-8.6442-2.10938-12.70244-2.57409-20.78318-2.3798-10.02485.24101-15.9539 1.68293-22.40247 5.44819-2.83075 1.65282-3.56872 2.25405-3.20865 2.61412.0943.0943 1.97698-.59984 4.18377-1.54249 10.89662-4.65463 21.07027-5.4754 34.61675-2.79274 6.31641 1.25087 11.40771 2.73291 25.1628 7.32469 16.20889 5.41093 28.46996 8.48621 33.89208 8.50068 2.8323.007 3.69425.31555 3.55786 1.27136-.10732.75194-.32022.79756-3.51293.75264-6.97959-.0981-15.93387-2.27524-34.81028-8.46338-22.32998-7.32031-27.42174-8.44144-38.45081-8.46622-7.38766-.0159-10.19887.3072-15.10539 1.73987-3.38408.98812-8.51474 3.47698-9.64265 4.67761-1.25293 1.33367-.3181 1.22579 3.34893-.38652 4.94388-2.17369 9.97732-3.23363 16.48986-3.47241 8.81496-.32322 14.93206.96901 33.42066 7.06003 6.3348 2.087 13.72701 4.37864 16.42709 5.09253 4.61914 1.22131 12.22002 2.45514 15.12471 2.45514.90593.0 1.30239.17244 1.30239.56645.0.57208-.8653.63795-4.15399.31628z"
                style="fill:#ffffff;fill-opacity:1;stroke:none;stroke-width:0.35682002;stroke-miterlimit:4;stroke-dasharray:none;stroke-opacity:1" />
        </g>
        <text
            style="font-style:normal;font-weight:400;font-size:3.175px;line-height:1.25;font-family:sans-serif;letter-spacing:0;word-spacing:0;fill:#000000;fill-opacity:1;stroke:none;stroke-width:0.264583"
            x="88.446426"
            y="261.09225"
            id="text1044" />
        <flowRoot
            id="flowRoot1046"
            style="font-style:normal;font-weight:400;font-size:42.6667px;line-height:1.25;font-family:sans-serif;letter-spacing:0;word-spacing:0;fill:#000000;fill-opacity:1;stroke:none"><flowRegion
            id="flowRegion1048"
            style="font-size:42.6667px"><path
            id="rect1050"
            d="M312.85715 595.12939h555.71429v131.42857H312.85715z"
            style="font-size:42.66666667px" /></flowRegion><flowPara
            id="flowPara1052" /></flowRoot>
    </g>
</svg>
